# xmcd
#
# Track frame offsets:
#      150
#      19852
#      31911
#      46341
#      55466
#      70748
#      80296
#      96495
#      123928
#      138407
#      157492
#      162786
#      174671
#      181503
#      194877
#      206384
#      229715
# 
# Disc length: 3321 seconds
#
# Revision: 2
# Processed by: cddbd v1.5.1PL2 Copyright (c) Steve Scherf et al.
#
# Submitted via: FreeRIP 1.20
#
DISCID=ea0cf711
DTITLE=Calexico - The Black Light
DYEAR=1998
DGENRE=Country
TTITLE0=Gypsy's Curse
TTITLE1=Fake Fur
TTITLE2=The Ride (pt II)
TTITLE3=Where Water Flows
TTITLE4=The Black Light
TTITLE5=Sideshow
TTITLE6=Chach
TTITLE7=Missing
TTITLE8=Minas De Cobre (for Better Metal)
TTITLE9=Over Your Shoulder
TTITLE10=Vinegaroon
TTITLE11=Trigger
TTITLE12=Sprawl
TTITLE13=Stray
TTITLE14=Old Man Waltz
TTITLE15=Bloodflow
TTITLE16=Frontera
EXTD=
EXTT0=
EXTT1=
EXTT2=
EXTT3=
EXTT4=
EXTT5=
EXTT6=
EXTT7=
EXTT8=
EXTT9=
EXTT10=
EXTT11=
EXTT12=
EXTT13=
EXTT14=
EXTT15=
EXTT16=
PLAYORDER=
